<svg viewBox="0 0 24 24" fill="currentColor" xmlns="http://www.w3.org/2000/svg"><path fill-rule="evenodd" clip-rule="evenodd" d="M3.33333 3C3.24493 3 3.16014 3.03512 3.09763 3.09763C3.03512 3.16014 3 3.24493 3 3.33333V16.6667C3 16.7551 3.03512 16.8399 3.09763 16.9024C3.16014 16.9649 3.24493 17 3.33333 17H6C6.55228 17 7 17.4477 7 18V20L10.7333 17.2C10.9064 17.0702 11.117 17 11.3333 17H20.6667C20.7551 17 20.8399 16.9649 20.9024 16.9024C20.9649 16.8399 21 16.7551 21 16.6667V3.33333C21 3.24493 20.9649 3.16014 20.9024 3.09763C20.8399 3.03512 20.7551 3 20.6667 3H3.33333ZM1.68342 1.68342C2.121 1.24583 2.71449 1 3.33333 1H20.6667C21.2855 1 21.879 1.24583 22.3166 1.68342C22.7542 2.121 23 2.71449 23 3.33333V16.6667C23 17.2855 22.7542 17.879 22.3166 18.3166C21.879 18.7542 21.2855 19 20.6667 19H11.6667L6.6 22.8C6.29698 23.0273 5.89157 23.0638 5.55279 22.8944C5.214 22.725 5 22.3788 5 22V19H3.33333C2.71449 19 2.121 18.7542 1.68342 18.3166C1.24583 17.879 1 17.2855 1 16.6667V3.33333C1 2.71449 1.24583 2.121 1.68342 1.68342Z" fill="currentColor"></path></svg>