<svg viewBox="0 0 24 24" fill="currentColor" xmlns="http://www.w3.org/2000/svg"><path fill-rule="evenodd" clip-rule="evenodd" d="M1 12C1 5.92488 5.92488 1 12 1C18.0751 1 23 5.92487 23 12C23 18.0751 18.0751 23 12 23C5.92487 23 1 18.0751 1 12ZM12 3C7.02944 3 3 7.02944 3 12C3 16.9705 7.02945 21 12 21C16.9705 21 21 16.9705 21 12C21 7.02945 16.9705 3 12 3ZM12 9.28564C12.1978 9.28564 12.3911 9.227 12.5556 9.11712C12.72 9.00723 12.8482 8.85106 12.9239 8.66833C12.9996 8.4856 13.0194 8.28454 12.9808 8.09056C12.9422 7.89657 12.847 7.71839 12.7071 7.57854C12.5673 7.43868 12.3891 7.34344 12.1951 7.30486C12.0011 7.26627 11.8 7.28608 11.6173 7.36176C11.4346 7.43745 11.2784 7.56562 11.1685 7.73007C11.0586 7.89452 11 8.08786 11 8.28564C11 8.55086 11.1054 8.80522 11.2929 8.99275C11.4804 9.18029 11.7348 9.28564 12 9.28564ZM11 16C11 16.5523 11.4477 17 12 17C12.5523 17 13 16.5523 13 16V12C13 11.4477 12.5523 11 12 11C11.4477 11 11 11.4477 11 12V16Z" fill="currentColor"></path></svg>