<svg viewBox="0 0 24 24" fill="currentColor" xmlns="http://www.w3.org/2000/svg"><path fill-rule="evenodd" clip-rule="evenodd" d="M13.289 4.29681C13.6774 3.90413 14.3105 3.90064 14.7032 4.289L21.7032 11.2121C21.8931 11.3999 22 11.6559 22 11.9231C22 12.1902 21.8931 12.4462 21.7032 12.6341L14.7032 19.5572C14.3105 19.9455 13.6774 19.942 13.289 19.5493C12.9006 19.1567 12.9041 18.5235 13.2968 18.1352L18.5668 12.9231H3C2.44772 12.9231 2 12.4754 2 11.9231C2 11.3708 2.44772 10.9231 3 10.9231H18.5668L13.2968 5.711C12.9041 5.32264 12.9006 4.68949 13.289 4.29681Z" fill="currentColor"></path></svg>