<svg viewBox="0 0 24 24" fill="currentColor" xmlns="http://www.w3.org/2000/svg"><path fill-rule="evenodd" clip-rule="evenodd" d="M7.82359 23C9.51291 23 10.8824 21.6305 10.8824 19.9412C10.8824 18.5443 9.94594 17.366 8.66656 17C9.94594 16.634 10.8824 15.4558 10.8824 14.0589C10.8824 12.4089 9.57603 11.0641 7.94122 11.0023L7.94122 7.11594C9.57603 7.05413 10.8824 5.70931 10.8824 4.05937C10.8824 2.37005 9.51291 1.00057 7.82359 1.00057L6.05891 1.00057C4.36959 1.00057 3.00011 2.37004 3.00011 4.05937C3.00011 5.70929 4.30644 7.0541 5.94122 7.11594L5.94122 11.0023C4.30644 11.0642 3.00011 12.409 3.00011 14.0589C3.00011 15.4558 3.93656 16.634 5.21594 17C3.93656 17.366 3.00011 18.5443 3.00011 19.9412C3.00011 21.6305 4.36958 23 6.05891 23L7.82359 23ZM6.97571 5.11816C6.96426 5.11778 6.95276 5.11758 6.94122 5.11758C6.92968 5.11758 6.91818 5.11778 6.90673 5.11816L6.05891 5.11816C5.47415 5.11816 5.00011 4.64412 5.00011 4.05937C5.00011 3.47461 5.47415 3.00057 6.05891 3.00057L7.82359 3.00057C8.40834 3.00057 8.88238 3.47461 8.88238 4.05937C8.88238 4.64412 8.40834 5.11816 7.82359 5.11816L6.97571 5.11816ZM8.88238 19.9412C8.88238 20.526 8.40834 21 7.82359 21L6.05891 21C5.47415 21 5.00011 20.526 5.00011 19.9412C5.00011 19.3564 5.47415 18.8824 6.05891 18.8824L7.82359 18.8824C8.40834 18.8824 8.88238 19.3564 8.88238 19.9412ZM16.5296 16.8845C14.8948 16.9464 13.5884 18.2912 13.5884 19.9411C13.5884 21.6304 14.9579 22.9999 16.6472 22.9999L18.4119 22.9999C20.1012 22.9999 21.4707 21.6304 21.4707 19.9411C21.4707 18.2912 20.1644 16.9464 18.5296 16.8845L18.5296 12.9387C20.1659 12.8785 21.4739 11.533 21.4739 9.88204C21.4739 8.52009 20.5838 7.36605 19.3536 6.9699C20.5821 6.57279 21.4707 5.41956 21.4707 4.05879C21.4707 2.36947 20.1012 1 18.4119 1L16.6472 1C14.9579 0.999999 13.5884 2.36947 13.5884 4.05879C13.5884 5.42073 14.4785 6.57478 15.7088 6.97093C14.4802 7.36804 13.5916 8.52127 13.5916 9.88204C13.5916 11.5309 14.8963 12.8751 16.5296 12.9385L16.5296 16.8845ZM15.5884 19.9411C15.5884 19.3564 16.0625 18.8823 16.6472 18.8823L18.4119 18.8823C18.9967 18.8823 19.4707 19.3564 19.4707 19.9411C19.4707 20.5259 18.9967 20.9999 18.4119 20.9999L16.6472 20.9999C16.0625 20.9999 15.5884 20.5259 15.5884 19.9411ZM15.5884 4.05879C15.5884 3.47404 16.0625 3 16.6472 3L18.4119 3C18.9967 3 19.4707 3.47404 19.4707 4.05879C19.4707 4.64355 18.9967 5.11759 18.4119 5.11759L16.6472 5.11759C16.0625 5.11759 15.5884 4.64355 15.5884 4.05879ZM16.6504 8.82324C16.0656 8.82324 15.5916 9.29728 15.5916 9.88204C15.5916 10.4668 16.0656 10.9408 16.6504 10.9408L18.4151 10.9408C18.9998 10.9408 19.4739 10.4668 19.4739 9.88204C19.4739 9.29728 18.9998 8.82324 18.4151 8.82324L16.6504 8.82324ZM7.82359 15.1177C8.40834 15.1177 8.88238 14.6436 8.88238 14.0589C8.88238 13.4741 8.40834 13.0001 7.82359 13.0001L6.05891 13.0001C5.47415 13.0001 5.00011 13.4741 5.00011 14.0589C5.00011 14.6436 5.47415 15.1177 6.05891 15.1177L7.82359 15.1177Z" fill="currentColor"></path></svg>