<svg viewBox="0 0 24 24" fill="currentColor" xmlns="http://www.w3.org/2000/svg"><path fill-rule="evenodd" clip-rule="evenodd" d="M12 7C12 8.10457 11.1046 9 10 9C8.89543 9 8 8.10457 8 7C8 5.89543 8.89543 5 10 5C11.1046 5 12 5.89543 12 7ZM13.874 8C13.4299 9.72523 11.8638 11 10 11C8.13342 11 6.56545 9.72147 6.12406 7.99238C6.08342 7.99741 6.04201 8 6 8L3 8C2.44772 8 2 7.55228 2 7C2 6.44771 2.44772 6 3 6L6 6C6.04201 6 6.08342 6.00259 6.12406 6.00762C6.56545 4.27853 8.13342 3 10 3C11.8638 3 13.4299 4.27477 13.874 6L21 6C21.5523 6 22 6.44772 22 7C22 7.55228 21.5523 8 21 8L13.874 8ZM18 16C17.958 16 17.9166 16.0026 17.8759 16.0076C17.4345 14.2785 15.8666 13 14 13C12.1334 13 10.5655 14.2785 10.1241 16.0076C10.0834 16.0026 10.042 16 10 16H3C2.44772 16 2 16.4477 2 17C2 17.5523 2.44772 18 3 18H10C10.042 18 10.0834 17.9974 10.1241 17.9924C10.5655 19.7215 12.1334 21 14 21C15.8666 21 17.4345 19.7215 17.8759 17.9924C17.9166 17.9974 17.958 18 18 18H21C21.5523 18 22 17.5523 22 17C22 16.4477 21.5523 16 21 16H18ZM14 15C12.8954 15 12 15.8954 12 17C12 18.1046 12.8954 19 14 19C15.1046 19 16 18.1046 16 17C16 15.8954 15.1046 15 14 15Z" fill="currentColor"></path></svg>