<svg viewBox="0 0 24 24" fill="currentColor" xmlns="http://www.w3.org/2000/svg"><path fill-rule="evenodd" clip-rule="evenodd" d="M15.9941 2.11679C16.3438 2.54424 16.2808 3.17426 15.8533 3.52399L14.2689 4.82031H20.97C21.6012 4.82031 22.2066 5.07106 22.6529 5.5174C23.0993 5.96373 23.35 6.5691 23.35 7.20031V9.27031C23.35 9.71853 23.172 10.1484 22.855 10.4653C22.6122 10.7082 22.303 10.8695 21.97 10.9316V19.62C21.97 20.2512 21.7193 20.8565 21.2729 21.3029C20.8266 21.7492 20.2212 22 19.59 22H12.0268C12.0179 22.0002 12.0089 22.0003 12 22.0003C11.9911 22.0003 11.9821 22.0002 11.9732 22H4.41003C3.77881 22 3.17345 21.7492 2.72712 21.3029C2.28078 20.8565 2.03003 20.2512 2.03003 19.62V10.9316C1.69708 10.8695 1.38789 10.7082 1.14501 10.4653C0.828078 10.1484 0.650024 9.71853 0.650024 9.27031V7.20031C0.650024 6.5691 0.900774 5.96373 1.34711 5.5174C1.79345 5.07106 2.39881 4.82031 3.03002 4.82031H9.55341L7.7507 3.57228C7.29662 3.25792 7.18336 2.63496 7.49772 2.18088C7.81209 1.7268 8.43504 1.61353 8.88912 1.9279L11.8791 3.9979C11.9226 4.02798 11.9629 4.06089 12 4.09621C12.0182 4.07893 12.0371 4.0622 12.0569 4.04607L14.5869 1.97607C15.0143 1.62635 15.6443 1.68935 15.9941 2.11679ZM13 20H19.59C19.6908 20 19.7875 19.9599 19.8587 19.8887C19.93 19.8174 19.97 19.7207 19.97 19.62V10.9603H13V20ZM11 10.9603V20H4.41003C4.30925 20 4.21259 19.9599 4.14133 19.8887C4.07006 19.8174 4.03003 19.7207 4.03003 19.62V10.9603H11ZM13 8.95996H20.97L20.9829 8.96004L20.9968 8.96031H21.35V7.20031C21.35 7.09953 21.31 7.00288 21.2387 6.93161C21.1675 6.86035 21.0708 6.82031 20.97 6.82031H13V8.95996ZM11 6.82031V8.95996H3.03003C3.02108 8.95996 3.01215 8.96008 3.00326 8.96031H2.65002V7.20031C2.65002 7.09953 2.69006 7.00288 2.76132 6.93161C2.83259 6.86035 2.92924 6.82031 3.03002 6.82031H11Z" fill="currentColor"></path></svg>