<svg viewBox="0 0 24 24" fill="currentColor" xmlns="http://www.w3.org/2000/svg"><path fill-rule="evenodd" clip-rule="evenodd" d="M4 1C2.89543 1 2 1.89543 2 3V21C2 22.1046 2.89543 23 4 23H15C15.5523 23 16 22.5523 16 22C16 21.4477 15.5523 21 15 21H4V3L15 3C15.5523 3 16 2.55228 16 2C16 1.44772 15.5523 1 15 1H4ZM18.2071 7.79289C17.8166 7.40237 17.1834 7.40237 16.7929 7.79289C16.4024 8.18342 16.4024 8.81658 16.7929 9.20711L18.5858 11H9C8.44772 11 8 11.4477 8 12C8 12.5523 8.44772 13 9 13H18.5858L16.7929 14.7929C16.4024 15.1834 16.4024 15.8166 16.7929 16.2071C17.1834 16.5976 17.8166 16.5976 18.2071 16.2071L21.7071 12.7071C22.0976 12.3166 22.0976 11.6834 21.7071 11.2929L18.2071 7.79289Z" fill="currentColor"></path></svg>