<svg viewBox="0 0 24 24" fill="currentColor" xmlns="http://www.w3.org/2000/svg"><path fill-rule="evenodd" clip-rule="evenodd" d="M8 1C8.55228 1 9 1.44772 9 2V3.2832H15V2C15 1.44772 15.4477 1 16 1C16.5523 1 17 1.44772 17 2V3.2832H20C21.6569 3.2832 23 4.62635 23 6.2832V20.2832C23 21.9401 21.6569 23.2832 20 23.2832H4C2.34315 23.2832 1 21.9401 1 20.2832V6.2832C1 4.62635 2.34315 3.2832 4 3.2832H7V2C7 1.44772 7.44772 1 8 1ZM15 5.2832V6C15 6.55228 15.4477 7 16 7C16.5523 7 17 6.55228 17 6V5.2832H20C20.5523 5.2832 21 5.73092 21 6.2832V9.84961H3V6.2832C3 5.73092 3.44772 5.2832 4 5.2832H7V6C7 6.55228 7.44772 7 8 7C8.55228 7 9 6.55228 9 6V5.2832H15ZM3 11.8496V20.2832C3 20.8355 3.44772 21.2832 4 21.2832H20C20.5523 21.2832 21 20.8355 21 20.2832V11.8496H3Z" fill="currentColor"></path></svg>