<svg viewBox="0 0 24 24" fill="currentColor" xmlns="http://www.w3.org/2000/svg"><path fill-rule="evenodd" clip-rule="evenodd" d="M15.9471 9.97353C15.9471 13.2726 13.2726 15.9471 9.97353 15.9471C6.67444 15.9471 4 13.2726 4 9.97353C4 6.67444 6.67444 4 9.97353 4C13.2726 4 15.9471 6.67444 15.9471 9.97353ZM14.8606 16.2743C13.5108 17.3228 11.815 17.9471 9.97353 17.9471C5.56987 17.9471 2 14.3772 2 9.97353C2 5.56987 5.56987 2 9.97353 2C14.3772 2 17.9471 5.56987 17.9471 9.97353C17.9471 11.8148 17.3229 13.5103 16.2747 14.86L21.7109 20.2962C22.1014 20.6867 22.1014 21.3199 21.7109 21.7104C21.3204 22.1009 20.6872 22.1009 20.2967 21.7104L14.8606 16.2743Z" fill="currentColor"></path></svg>