<svg viewBox="0 0 24 24" fill="currentColor" xmlns="http://www.w3.org/2000/svg"><path d="M12.3291 21.3681L12.9026 20.5489C12.8981 20.5457 12.8935 20.5426 12.8889 20.5395L12.3291 21.3681ZM12.338 21.3743L11.7645 22.1935C11.7764 22.2019 11.7886 22.21 11.8009 22.2179L12.338 21.3743ZM17.3157 20.8277L16.6086 20.1206L16.6083 20.1208L17.3157 20.8277ZM17.8748 20.2686L17.1679 19.5613L17.1677 19.5615L17.8748 20.2686ZM18.2656 19.3255H17.2656H18.2656ZM17.8748 18.3824L18.5816 17.6751L18.5816 17.675L17.8748 18.3824ZM15.5166 16.026L14.8093 16.7329L14.8098 16.7334L15.5166 16.026ZM13.6304 16.026L14.3374 16.7332L14.3378 16.7329L13.6304 16.026ZM12.6878 16.4164V15.4164V16.4164ZM11.7451 16.026L11.0379 16.733L11.0381 16.7332L11.7451 16.026ZM7.97455 12.2546L7.26734 12.9616L7.26736 12.9616L7.97455 12.2546ZM7.97455 10.3693L7.26767 9.66193L7.26734 9.66227L7.97455 10.3693ZM7.97455 8.48309L7.26758 9.19033L7.26767 9.19042L7.97455 8.48309ZM5.61728 6.1267L4.91028 6.83391L4.9103 6.83394L5.61728 6.1267ZM3.73199 6.1267L4.43853 6.83437L4.43899 6.83391L3.73199 6.1267ZM3.172 6.6858L2.46546 5.97813L2.46501 5.97858L3.172 6.6858ZM2.62624 11.6635L3.48373 11.149C3.47915 11.1413 3.47446 11.1337 3.46968 11.1262L2.62624 11.6635ZM2.63157 11.6723L1.77408 12.1868C1.78333 12.2023 1.79299 12.2174 1.80306 12.2323L2.63157 11.6723ZM11.7556 22.1873L11.7645 22.1935L12.9115 20.5551L12.9026 20.5489L11.7556 22.1873ZM11.8009 22.2179C12.761 22.8291 13.9008 23.0946 15.0321 22.9703L14.8138 20.9823C14.135 21.0568 13.4511 20.8976 12.8751 20.5308L11.8009 22.2179ZM15.0321 22.9703C16.1635 22.8461 17.2185 22.3396 18.023 21.5345L16.6083 20.1208C16.1256 20.6039 15.4926 20.9078 14.8138 20.9823L15.0321 22.9703ZM18.0228 21.5348L18.5819 20.9757L17.1677 19.5615L16.6086 20.1206L18.0228 21.5348ZM18.5816 20.9759C18.7985 20.7592 18.9705 20.5019 19.0878 20.2188L17.2402 19.4531C17.2234 19.4935 17.1989 19.5303 17.1679 19.5613L18.5816 20.9759ZM19.0878 20.2188C19.2052 19.9356 19.2656 19.632 19.2656 19.3255H17.2656C17.2656 19.3693 17.257 19.4126 17.2402 19.4531L19.0878 20.2188ZM19.2656 19.3255C19.2656 19.019 19.2052 18.7154 19.0878 18.4322L17.2402 19.1979C17.257 19.2384 17.2656 19.2817 17.2656 19.3255H19.2656ZM19.0878 18.4322C18.9705 18.1491 18.7985 17.8918 18.5816 17.6751L17.1679 19.0897C17.1989 19.1207 17.2234 19.1574 17.2402 19.1979L19.0878 18.4322ZM18.5816 17.675L16.2234 15.3186L14.8098 16.7334L17.1679 19.0898L18.5816 17.675ZM16.2239 15.3191C16.0072 15.1023 15.75 14.9303 15.4668 14.813L14.7011 16.6606C14.7416 16.6774 14.7783 16.7019 14.8093 16.7329L16.2239 15.3191ZM15.4668 14.813C15.1836 14.6956 14.88 14.6352 14.5735 14.6352V16.6352C14.6173 16.6352 14.6607 16.6438 14.7011 16.6606L15.4668 14.813ZM14.5735 14.6352C14.267 14.6352 13.9634 14.6956 13.6802 14.813L14.4459 16.6606C14.4864 16.6438 14.5297 16.6352 14.5735 16.6352V14.6352ZM13.6802 14.813C13.3971 14.9303 13.1398 15.1023 12.9231 15.3191L14.3378 16.7329C14.3687 16.7019 14.4055 16.6774 14.4459 16.6606L13.6802 14.813ZM12.9234 15.3188C12.8609 15.3813 12.7762 15.4164 12.6878 15.4164V17.4164C13.3065 17.4164 13.8999 17.1707 14.3374 16.7332L12.9234 15.3188ZM12.6878 15.4164C12.5994 15.4164 12.5146 15.3813 12.4521 15.3188L11.0381 16.7332C11.4757 17.1707 12.0691 17.4164 12.6878 17.4164V15.4164ZM12.4523 15.319L8.68174 11.5475L7.26736 12.9616L11.0379 16.733L12.4523 15.319ZM8.68177 11.5476C8.61928 11.4851 8.58418 11.4003 8.58418 11.3119H6.58418C6.58418 11.9306 6.82991 12.524 7.26734 12.9616L8.68177 11.5476ZM8.58418 11.3119C8.58418 11.2235 8.61928 11.1388 8.68177 11.0763L7.26734 9.66227C6.82992 10.0998 6.58418 10.6932 6.58418 11.3119H8.58418ZM8.68143 11.0766C8.89826 10.8599 9.07026 10.6026 9.18762 10.3194L7.33998 9.55378C7.32322 9.59423 7.29865 9.63098 7.26767 9.66193L8.68143 11.0766ZM9.18762 10.3194C9.30497 10.0363 9.36537 9.73272 9.36537 9.42618H7.36537C7.36537 9.46996 7.35674 9.51332 7.33998 9.55378L9.18762 10.3194ZM9.36537 9.42618C9.36537 9.11964 9.30497 8.8161 9.18762 8.53292L7.33998 9.29858C7.35674 9.33903 7.36537 9.38239 7.36537 9.42618H9.36537ZM9.18762 8.53292C9.07026 8.24973 8.89826 7.99244 8.68143 7.77576L7.26767 9.19042C7.29865 9.22137 7.32322 9.25813 7.33998 9.29858L9.18762 8.53292ZM8.68153 7.77585L6.32425 5.41946L4.9103 6.83394L7.26758 9.19033L8.68153 7.77585ZM6.32428 5.41949C5.88672 4.98206 5.29334 4.73633 4.67463 4.73633V6.73633C4.76301 6.73633 4.84777 6.77143 4.91028 6.83391L6.32428 5.41949ZM4.67463 4.73633C4.05592 4.73633 3.46255 4.98206 3.02499 5.41949L4.43899 6.83391C4.50149 6.77143 4.58625 6.73633 4.67463 6.73633V4.73633ZM3.02544 5.41903L2.46546 5.97813L3.87855 7.39347L4.43853 6.83437L3.02544 5.41903ZM2.46501 5.97858C1.66012 6.78321 1.15383 7.83835 1.02979 8.96967L3.01788 9.18765C3.0923 8.50887 3.39607 7.87579 3.879 7.39302L2.46501 5.97858ZM1.02979 8.96967C0.905751 10.101 1.17138 11.2408 1.7828 12.2007L3.46968 11.1262C3.10283 10.5503 2.94345 9.86643 3.01788 9.18765L1.02979 8.96967ZM1.76874 12.178L1.77408 12.1868L3.48906 11.1578L3.48373 11.149L1.76874 12.178ZM1.80306 12.2323C4.45784 16.1602 7.84097 19.5427 11.7693 22.1967L12.8889 20.5395C9.17243 18.0285 5.97172 14.8284 3.46008 11.1124L1.80306 12.2323Z" fill="currentColor"></path><path fill-rule="evenodd" clip-rule="evenodd" d="M15.1649 1.43134C15.8524 1.14657 16.5893 1 17.3334 1C18.0776 1 18.8144 1.14657 19.5019 1.43134C20.1894 1.71611 20.8141 2.13351 21.3403 2.6597C21.8665 3.18588 22.2839 3.81056 22.5686 4.49806C22.8534 5.18556 23 5.92241 23 6.66656C23 7.4107 22.8534 8.14755 22.5686 8.83505C22.2839 9.52255 21.8665 10.1472 21.3403 10.6734C20.8141 11.1996 20.1894 11.617 19.5019 11.9018C18.8144 12.1865 18.0776 12.3331 17.3334 12.3331C16.5893 12.3331 15.8524 12.1865 15.1649 11.9018C14.4774 11.617 13.8528 11.1996 13.3266 10.6734C12.8004 10.1472 12.383 9.52255 12.0982 8.83505C11.8134 8.14756 11.6669 7.4107 11.6669 6.66656C11.6669 5.92241 11.8134 5.18556 12.0982 4.49806C12.383 3.81056 12.8004 3.18588 13.3266 2.6597C13.8528 2.13351 14.4774 1.71611 15.1649 1.43134ZM17.3334 3C16.8519 3 16.3751 3.09484 15.9303 3.2791C15.4854 3.46336 15.0813 3.73344 14.7408 4.07391C14.4003 4.41438 14.1302 4.81858 13.946 5.26343C13.7617 5.70827 13.6669 6.18506 13.6669 6.66656C13.6669 7.14806 13.7617 7.62484 13.946 8.06969C14.1302 8.51453 14.4003 8.91873 14.7408 9.2592C15.0813 9.59967 15.4854 9.86975 15.9303 10.054C16.3751 10.2383 16.8519 10.3331 17.3334 10.3331C17.8149 10.3331 18.2917 10.2383 18.7366 10.054C19.1814 9.86975 19.5856 9.59967 19.9261 9.2592C20.2665 8.91873 20.5366 8.51453 20.7209 8.06969C20.9051 7.62484 21 7.14806 21 6.66656C21 6.18506 20.9051 5.70827 20.7209 5.26343C20.5366 4.81858 20.2665 4.41438 19.9261 4.07391C19.5856 3.73344 19.1814 3.46336 18.7366 3.2791C18.2917 3.09484 17.8149 3 17.3334 3Z" fill="currentColor"></path><path fill-rule="evenodd" clip-rule="evenodd" d="M17.3334 3.6665C17.8857 3.6665 18.3334 4.11422 18.3334 4.6665V5.66646H19.3333C19.8856 5.66646 20.3333 6.11417 20.3333 6.66646C20.3333 7.21874 19.8856 7.66646 19.3333 7.66646H17.3334C16.7811 7.66646 16.3334 7.21874 16.3334 6.66646V4.6665C16.3334 4.11422 16.7811 3.6665 17.3334 3.6665Z" fill="currentColor"></path></svg>